<?xml version="1.0" encoding="UTF-8"?>
<svg id="Capa_1" data-name="Capa 1" xmlns="http://www.w3.org/2000/svg" xmlns:xlink="http://www.w3.org/1999/xlink" viewBox="0 0 1920 1080">
  <defs>
    <style>
      .cls-1 {
        letter-spacing: .07em;
      }

      .cls-2 {
        letter-spacing: 0em;
      }

      .cls-3 {
        letter-spacing: .08em;
      }

      .cls-4 {
        fill: none;
      }

      .cls-5, .cls-6 {
        fill: #fffef7;
      }

      .cls-7, .cls-8 {
        fill: #00252b;
      }

      .cls-9 {
        letter-spacing: .07em;
      }

      .cls-10 {
        clip-path: url(#clippath);
      }

      .cls-6, .cls-8 {
        font-family: Montserrat-Regular, Montserrat;
        font-size: 38px;
      }
    </style>
    <clipPath id="clippath">
      <rect class="cls-4" width="1920" height="1080"/>
    </clipPath>
  </defs>
  <rect class="cls-7" width="1920" height="540"/>
  <rect class="cls-5" y="540" width="1920" height="540"/>
  <g class="cls-10">
    <path class="cls-7" d="M31.98,1049.68c-.32,0-.62-.05-.89-.16-.27-.11-.51-.25-.71-.45-.2-.19-.36-.42-.47-.68-.11-.26-.17-.55-.17-.86s.06-.6.17-.86c.11-.26.27-.49.47-.68.2-.19.44-.34.71-.45.27-.1.57-.16.89-.16.36,0,.68.06.97.19.29.12.53.31.73.55l-.61.57c-.14-.16-.3-.28-.47-.36-.17-.08-.36-.12-.57-.12-.19,0-.37.03-.53.09-.16.06-.3.15-.42.27-.12.12-.21.26-.28.42-.06.16-.1.34-.1.54s.03.38.1.54c.07.16.16.3.28.42.12.12.26.21.42.27.16.06.34.09.53.09.21,0,.4-.04.57-.12.17-.08.33-.2.47-.37l.61.57c-.2.24-.44.42-.73.55s-.62.19-.98.19"/>
    <path class="cls-7" d="M34.89,1049.61l1.85-4.14h.95l1.85,4.14h-1l-1.52-3.66h.38l-1.52,3.66h-.98ZM35.81,1048.73l.25-.73h2.13l.26.73h-2.64Z"/>
    <polygon class="cls-7" points="41.15 1049.61 41.15 1045.47 41.94 1045.47 43.7 1048.4 43.28 1048.4 45.01 1045.47 45.8 1045.47 45.81 1049.61 44.91 1049.61 44.91 1046.85 45.07 1046.85 43.69 1049.18 43.26 1049.18 41.84 1046.85 42.04 1046.85 42.04 1049.61 41.15 1049.61"/>
    <rect class="cls-7" x="47.98" y="1045.47" width=".96" height="4.14"/>
    <polygon class="cls-7" points="51.1 1049.61 51.1 1045.47 52.06 1045.47 52.06 1048.83 54.14 1048.83 54.14 1049.61 51.1 1049.61"/>
    <path class="cls-7" d="M57.8,1049.68c-.33,0-.63-.05-.91-.16-.28-.11-.52-.26-.72-.45-.2-.19-.36-.42-.47-.68-.11-.26-.17-.55-.17-.85s.06-.59.17-.85c.11-.26.27-.49.48-.68.21-.19.44-.34.72-.45.28-.11.58-.16.9-.16s.63.05.9.16c.27.11.51.26.72.45.2.19.36.42.48.68s.17.54.17.85-.06.59-.17.85c-.11.26-.27.49-.48.68-.2.19-.44.34-.72.45-.27.11-.57.16-.9.16M57.79,1048.87c.18,0,.36-.03.51-.09.16-.06.29-.15.41-.27.12-.12.21-.26.28-.42.06-.16.1-.34.1-.54s-.03-.38-.1-.54c-.06-.16-.16-.3-.27-.42-.12-.12-.25-.21-.41-.27-.16-.06-.33-.09-.51-.09s-.36.03-.51.09c-.16.06-.29.15-.41.27-.12.12-.21.26-.28.42-.06.16-.1.34-.1.54s.03.37.1.53c.06.16.16.31.27.42.12.12.25.21.41.27.16.06.33.09.52.09"/>
    <polygon class="cls-7" points="66.06 1049.61 64.28 1045.47 65.31 1045.47 66.87 1049.14 66.26 1049.14 67.85 1045.47 68.8 1045.47 67.01 1049.61 66.06 1049.61"/>
    <path class="cls-7" d="M69.65,1049.61l1.85-4.14h.95l1.85,4.14h-1.01l-1.51-3.66h.38l-1.52,3.66h-.98ZM70.57,1048.73l.25-.73h2.13l.26.73h-2.64ZM71.43,1045.13l.8-.85h.99l-1.07.85h-.72Z"/>
    <polygon class="cls-7" points="75.64 1049.61 75.64 1048.99 78.2 1045.9 78.32 1046.25 75.69 1046.25 75.69 1045.47 79.17 1045.47 79.17 1046.09 76.62 1049.18 76.5 1048.83 79.26 1048.83 79.26 1049.61 75.64 1049.61"/>
    <path class="cls-7" d="M83.02,1049.68c-.32,0-.62-.05-.9-.16-.28-.11-.52-.26-.72-.45-.2-.19-.36-.42-.47-.68-.11-.26-.17-.54-.17-.85s.06-.59.17-.85c.11-.26.27-.49.48-.68.2-.19.44-.34.72-.45.28-.11.58-.16.9-.16s.63.05.9.16c.28.11.51.26.72.45.2.19.36.42.48.68.11.26.17.55.17.86s-.06.59-.17.85c-.11.26-.27.49-.48.68-.2.19-.44.34-.72.45-.27.11-.57.16-.9.16M83.02,1048.87c.18,0,.36-.03.51-.1.16-.06.29-.15.41-.27.12-.12.21-.26.28-.42.07-.16.1-.34.1-.54s-.03-.38-.1-.54c-.06-.16-.16-.3-.28-.42-.12-.12-.25-.21-.41-.27-.15-.06-.33-.1-.51-.1s-.36.03-.51.1-.29.15-.41.27c-.12.12-.21.26-.27.42-.07.16-.1.34-.1.54s.03.37.1.54c.06.16.15.3.27.42.12.12.25.21.41.27.16.06.33.1.51.1M84.38,1050.57c-.16,0-.31-.02-.46-.05-.14-.04-.29-.09-.43-.17-.14-.08-.29-.19-.44-.32-.15-.13-.32-.3-.49-.5l1.01-.26c.11.15.21.26.29.35.09.09.18.15.26.18.08.04.17.05.27.05.25,0,.48-.1.67-.31l.43.51c-.28.34-.65.51-1.12.51"/>
    <path class="cls-7" d="M89.03,1049.68c-.59,0-1.05-.16-1.38-.49-.33-.33-.5-.79-.5-1.4v-2.32h.96v2.28c0,.39.08.68.24.85.16.17.39.26.68.26s.52-.09.68-.26c.16-.17.24-.46.24-.85v-2.28h.95v2.32c0,.61-.17,1.07-.5,1.4-.33.33-.79.49-1.38.49"/>
    <path class="cls-7" d="M93.99,1048.84h2.25v.77h-3.21v-4.14h3.13v.77h-2.18v2.6ZM93.92,1047.14h1.99v.74h-1.99v-.74Z"/>
    <polygon class="cls-7" points="97.92 1049.61 97.92 1048.99 100.49 1045.9 100.6 1046.25 97.97 1046.25 97.97 1045.47 101.46 1045.47 101.46 1046.09 98.9 1049.18 98.78 1048.83 101.54 1048.83 101.54 1049.61 97.92 1049.61"/>
    <polygon class="cls-7" points="107.19 1049.61 105.84 1045.47 106.83 1045.47 108.01 1049.14 107.51 1049.14 108.74 1045.47 109.63 1045.47 110.81 1049.14 110.33 1049.14 111.54 1045.47 112.46 1045.47 111.1 1049.61 110.07 1049.61 109.03 1046.4 109.3 1046.4 108.22 1049.61 107.19 1049.61"/>
    <polygon class="cls-7" points="114.17 1049.61 114.17 1045.47 115.13 1045.47 115.13 1048.83 117.21 1048.83 117.21 1049.61 114.17 1049.61"/>
    <path class="cls-7" d="M118.41,1049.61l1.85-4.14h.95l1.85,4.14h-1l-1.51-3.66h.38l-1.52,3.66h-.98ZM119.33,1048.73l.25-.73h2.13l.26.73h-2.64Z"/>
    <path class="cls-7" d="M126.03,1049.68c-.33,0-.65-.04-.95-.13-.3-.09-.55-.2-.73-.35l.33-.72c.18.13.39.23.63.31.24.08.49.12.74.12.19,0,.34-.02.46-.06.12-.04.2-.09.26-.16.06-.07.08-.14.08-.23,0-.11-.04-.2-.13-.26-.09-.06-.2-.12-.34-.16-.14-.04-.3-.08-.47-.12-.17-.04-.34-.08-.51-.14-.17-.06-.33-.13-.47-.21-.14-.09-.26-.2-.35-.34-.09-.14-.13-.32-.13-.54,0-.24.06-.45.19-.65s.32-.35.58-.47c.26-.12.58-.17.97-.17.26,0,.52.03.77.09.25.06.47.15.67.28l-.3.73c-.19-.11-.39-.19-.58-.25s-.38-.08-.57-.08-.34.02-.45.07c-.12.04-.2.1-.26.17-.05.07-.08.15-.08.24,0,.11.04.19.13.26.09.06.2.12.34.16.14.04.3.08.47.12.17.04.34.09.51.14.17.05.33.12.47.21.14.09.26.2.35.34.09.14.13.32.13.54,0,.23-.07.44-.19.64-.13.19-.32.35-.58.47-.26.12-.58.18-.98.18"/>
    <rect class="cls-7" x="129.63" y="1045.47" width=".96" height="4.14"/>
    <path class="cls-7" d="M134.59,1049.68c-.59,0-1.05-.16-1.38-.49-.33-.33-.5-.79-.5-1.4v-2.32h.96v2.28c0,.39.08.68.24.85.16.17.39.26.68.26s.52-.09.68-.26c.16-.17.24-.46.24-.85v-2.28h.95v2.32c0,.61-.17,1.07-.5,1.4-.33.33-.79.49-1.38.49"/>
    <path class="cls-7" d="M138.59,1045.47h.95v4.14h-.95v-4.14ZM139.45,1048.67l-.05-1.11,1.98-2.09h1.06l-1.79,1.92-.53.57-.67.7ZM141.43,1049.61l-1.47-1.8.63-.68,1.96,2.48h-1.12Z"/>
    <path class="cls-7" d="M38.08,1038.83c-1.2,0-2.32-.22-3.38-.65-1.05-.43-1.97-1.03-2.74-1.81-.77-.77-1.39-1.69-1.84-2.75-.45-1.06-.68-2.22-.68-3.46v-.05c0-1.21.22-2.35.67-3.41.45-1.06,1.06-1.99,1.84-2.78.78-.79,1.71-1.41,2.79-1.85,1.08-.45,2.26-.67,3.53-.67.86,0,1.65.08,2.35.25.7.17,1.34.41,1.93.72.58.31,1.11.68,1.58,1.11.47.43.89.9,1.26,1.41l-3.5,2.71c-.48-.61-1.01-1.09-1.58-1.44-.58-.35-1.27-.53-2.09-.53-.59,0-1.13.12-1.62.35-.49.23-.91.55-1.26.95-.35.4-.63.87-.83,1.41-.2.54-.3,1.12-.3,1.72v.05c0,.62.1,1.21.3,1.76.2.55.47,1.03.83,1.43.35.4.77.71,1.26.94.49.23,1.03.35,1.62.35.43,0,.83-.05,1.19-.14.36-.1.69-.24.98-.42.3-.18.58-.4.84-.65.26-.25.52-.52.78-.83l3.5,2.49c-.4.54-.83,1.05-1.31,1.51-.47.46-1.01.86-1.6,1.2-.6.34-1.27.6-2.01.79-.74.19-1.58.29-2.5.29"/>
    <polygon class="cls-7" points="75.82 1021.73 80.73 1021.73 84.73 1028.22 88.73 1021.73 93.64 1021.73 93.64 1038.5 89.02 1038.5 89.02 1028.87 84.74 1035.43 84.65 1035.43 80.4 1028.92 80.4 1038.5 75.82 1038.5 75.82 1021.73"/>
    <rect class="cls-7" x="100.72" y="1021.73" width="4.67" height="9.01"/>
    <polygon class="cls-7" points="112.47 1021.73 117.12 1021.73 117.12 1034.43 125.24 1034.43 125.24 1038.5 112.47 1038.5 112.47 1021.73"/>
    <path class="cls-7" d="M135.4,1035.03c-1.02,0-1.96-.18-2.84-.54-.87-.36-1.62-.85-2.25-1.47-.63-.62-1.12-1.34-1.48-2.17-.36-.83-.54-1.72-.54-2.67v-.04c0-.95.18-1.84.54-2.68.36-.84.86-1.57,1.5-2.19.64-.62,1.4-1.12,2.27-1.47.87-.36,1.82-.54,2.84-.54s1.97.18,2.84.54c.87.36,1.62.85,2.25,1.47.63.62,1.12,1.34,1.48,2.17.36.83.54,1.72.54,2.67v.04c0,.95-.18,1.84-.54,2.68-.36.84-.86,1.57-1.5,2.19-.64.62-1.4,1.12-2.27,1.48-.87.36-1.82.54-2.84.54M135.43,1031.03c.41,0,.78-.08,1.12-.23.34-.15.62-.36.86-.62.24-.26.42-.56.55-.91.13-.35.2-.71.2-1.1v-.03c0-.39-.07-.75-.2-1.1-.13-.35-.32-.65-.57-.92-.24-.26-.54-.47-.87-.63-.34-.16-.71-.24-1.12-.24s-.78.08-1.11.23c-.33.15-.62.36-.86.62-.24.26-.42.56-.55.91-.13.35-.19.71-.19,1.1v.03c0,.39.07.75.2,1.1.13.35.32.65.56.92.24.26.53.48.86.63.34.16.71.24,1.12.24"/>
    <polygon class="cls-7" points="61.87 1021.61 57.39 1021.61 50.26 1038.5 55.14 1038.5 55.88 1036.66 56.02 1036.29 56.01 1036.29 56.35 1035.45 56.52 1035 56.52 1035 59.6 1027.15 62.71 1035.32 62.78 1035.5 62.78 1035.51 64.03 1038.5 69.01 1038.5 61.87 1021.61"/>
  </g>
  <text class="cls-6" transform="translate(117.55 382.29) rotate(-90)"><tspan class="cls-3" x="0" y="0">NEGATI</tspan><tspan class="cls-1" x="163.32" y="0">V</tspan><tspan x="192.66" y="0">O</tspan></text>
  <text class="cls-8" transform="translate(117.55 915.77) rotate(-90)"><tspan class="cls-9" x="0" y="0">POSITI</tspan><tspan class="cls-1" x="144.4" y="0">V</tspan><tspan class="cls-2" x="173.73" y="0">O</tspan></text>
  <polygon class="cls-5" points="829.14 309.57 781.63 309.57 781.63 326.51 823.59 326.51 823.59 349.64 781.63 349.64 781.63 368.16 829.14 368.16 829.14 391.92 754.7 391.92 754.7 285.81 829.14 285.81 829.14 309.57"/>
  <path class="cls-5" d="M897.72,393.5c-16.63,0-33.73-6.97-44.82-18.37l16.47-19.32c10.14,9.66,18.69,13.94,27.71,13.94,7.76,0,13.15-3.33,13.15-8.23,0-16.15-53.37-8.71-53.37-44.18,0-19,16.95-33.1,39.75-33.1,14.41,0,27.71,5.23,37.85,14.89l-16.63,19.48c-7.44-7.13-15.04-10.61-22.65-10.61-6.81,0-11.24,2.53-11.24,6.49,0,14.89,53.69,8.08,53.69,45.61,0,19.8-16.31,33.42-39.91,33.42"/>
  <polygon class="cls-5" points="1046.11 309.57 1016.02 309.57 1016.02 391.92 989.1 391.92 989.1 309.57 959.01 309.57 959.01 285.81 1046.11 285.81 1046.11 309.57"/>
  <polygon class="cls-5" points="1148.27 309.57 1100.76 309.57 1100.76 326.51 1142.72 326.51 1142.72 349.64 1100.76 349.64 1100.76 368.16 1148.27 368.16 1148.27 391.92 1073.83 391.92 1073.83 285.81 1148.27 285.81 1148.27 309.57"/>
  <path class="cls-5" d="M1223.5,358.03h-19v33.89h-26.92v-106.11h45.93c21.38,0,36.42,15.04,36.42,36.11s-15.04,36.11-36.42,36.11M1218.74,309.57h-14.25v24.71h14.25c8.23,0,13.94-5.07,13.94-12.35s-5.7-12.35-13.94-12.35"/>
  <polygon class="cls-5" points="1339.61 285.79 1309.2 285.79 1269.46 391.89 1297.95 391.89 1304.13 374.48 1312.05 352.3 1324.4 317.45 1336.77 352.3 1336.78 352.3 1350.85 391.89 1379.36 391.89 1339.61 285.79"/>
  <path class="cls-5" d="M826.82,183.87c-5.39-7.6-13.46-11.72-22.81-11.72-16.95,0-28.51,11.88-28.51,28.98s12.83,30.25,31.36,30.25c5.7,0,11.4-1.27,16.79-3.8v-12.83h-21.22v-20.74h48.14v47.83c-11.4,8.87-28.35,13.94-46.56,13.94-32.94,0-55.9-22.17-55.9-54.64s22.96-54.64,55.9-54.64c19.01,0,35.16,7.44,44.66,20.59l-21.85,16.79Z"/>
  <path class="cls-5" d="M947.35,217.13l22.01,37.06h-30.09l-18.37-33.89h-11.72v33.89h-26.92v-106.11h49.09c21.38,0,36.42,15.05,36.42,36.11,0,15.36-7.92,27.4-20.43,32.94M926.6,171.83h-17.42v26.29h17.42c8.24,0,13.94-5.38,13.94-13.14s-5.7-13.15-13.94-13.15"/>
  <path class="cls-5" d="M1083.39,214.12c0,23.91-18.21,41.65-42.76,41.65s-42.76-16.95-42.76-41.65v-66.04h26.92v66.04c0,9.5,6.49,16,15.84,16s15.84-6.81,15.84-16v-66.04h26.92v66.04Z"/>
  <path class="cls-5" d="M1162.58,220.3h-19.01v33.89h-26.92v-106.11h45.93c21.38,0,36.42,15.05,36.42,36.11s-15.04,36.11-36.42,36.11M1157.83,171.83h-14.25v24.71h14.25c8.23,0,13.94-5.07,13.94-12.35s-5.7-12.35-13.94-12.35"/>
  <path class="cls-5" d="M1277.34,146.5c33.1,0,56.06,22.49,56.06,54.64s-23.91,54.64-56.06,54.64-55.9-22.33-55.9-54.64,22.96-54.64,55.9-54.64M1277.34,230.12c16.47,0,28.82-12.51,28.82-28.98s-11.72-28.98-28.82-28.98-28.66,11.88-28.66,28.98,11.72,28.98,28.66,28.98"/>
  <path class="cls-5" d="M591.37,286.22c2.72,3.19,5.59,6.33,8.63,9.39,30.33,30.56,71.61,48.42,123.27,54.05v-23.07c-45.07-5.35-80.86-20.84-106.88-46.99-4.38-4.41-8.37-9.01-12.02-13.75,29.84,24.2,69.6,38.95,118.9,43.78v-23.81c-52.85-5.55-92.95-22.56-119.71-52.18-22.09-24.45-31.85-59.1-35.76-85.07-.08-.58-.04-.5-.15-.51h-27.02c-.02,1.26,0,4.65,0,4.65,0,0,.04,9.15,0,15.76-.23,37.15,6.46,113.58,59.54,167.51,30.71,31.2,71.94,50.26,123.08,55.96v-23.63c-44.56-5.43-80.28-21.57-106.65-48.3-10.25-10.39-18.54-21.86-25.25-33.8"/>
  <polygon class="cls-7" points="829.14 849.57 781.63 849.57 781.63 866.51 823.59 866.51 823.59 889.64 781.63 889.64 781.63 908.16 829.14 908.16 829.14 931.92 754.7 931.92 754.7 825.81 829.14 825.81 829.14 849.57"/>
  <path class="cls-7" d="M897.72,933.5c-16.63,0-33.73-6.97-44.82-18.37l16.47-19.32c10.14,9.66,18.69,13.94,27.71,13.94,7.76,0,13.15-3.32,13.15-8.23,0-16.15-53.37-8.71-53.37-44.19,0-19,16.95-33.1,39.75-33.1,14.41,0,27.71,5.23,37.85,14.89l-16.63,19.48c-7.44-7.13-15.04-10.61-22.65-10.61-6.81,0-11.24,2.53-11.24,6.49,0,14.89,53.69,8.08,53.69,45.61,0,19.8-16.31,33.42-39.91,33.42"/>
  <polygon class="cls-7" points="1046.11 849.57 1016.02 849.57 1016.02 931.92 989.1 931.92 989.1 849.57 959.01 849.57 959.01 825.81 1046.11 825.81 1046.11 849.57"/>
  <polygon class="cls-7" points="1148.27 849.57 1100.76 849.57 1100.76 866.51 1142.72 866.51 1142.72 889.64 1100.76 889.64 1100.76 908.16 1148.27 908.16 1148.27 931.92 1073.83 931.92 1073.83 825.81 1148.27 825.81 1148.27 849.57"/>
  <path class="cls-7" d="M1223.5,898.03h-19v33.89h-26.92v-106.11h45.93c21.38,0,36.42,15.04,36.42,36.11s-15.04,36.11-36.42,36.11M1218.74,849.57h-14.25v24.71h14.25c8.23,0,13.94-5.07,13.94-12.35s-5.7-12.35-13.94-12.35"/>
  <polygon class="cls-7" points="1339.61 825.79 1309.2 825.79 1269.46 931.89 1297.95 931.89 1304.13 914.48 1312.05 892.3 1324.4 857.45 1336.77 892.3 1336.78 892.3 1350.85 931.89 1379.36 931.89 1339.61 825.79"/>
  <path class="cls-7" d="M826.82,723.87c-5.39-7.6-13.46-11.72-22.81-11.72-16.95,0-28.51,11.88-28.51,28.98s12.83,30.25,31.36,30.25c5.7,0,11.4-1.27,16.79-3.8v-12.83h-21.22v-20.74h48.14v47.83c-11.4,8.87-28.35,13.94-46.56,13.94-32.94,0-55.9-22.17-55.9-54.64s22.96-54.64,55.9-54.64c19.01,0,35.16,7.44,44.66,20.59l-21.85,16.79Z"/>
  <path class="cls-7" d="M947.35,757.13l22.01,37.06h-30.09l-18.37-33.89h-11.72v33.89h-26.92v-106.11h49.09c21.38,0,36.42,15.05,36.42,36.11,0,15.36-7.92,27.4-20.43,32.94M926.6,711.83h-17.42v26.29h17.42c8.24,0,13.94-5.38,13.94-13.14s-5.7-13.15-13.94-13.15"/>
  <path class="cls-7" d="M1083.39,754.12c0,23.91-18.21,41.65-42.76,41.65s-42.76-16.95-42.76-41.65v-66.04h26.92v66.04c0,9.5,6.49,16,15.84,16s15.84-6.81,15.84-16v-66.04h26.92v66.04Z"/>
  <path class="cls-7" d="M1162.58,760.3h-19.01v33.89h-26.92v-106.11h45.93c21.38,0,36.42,15.05,36.42,36.11s-15.04,36.11-36.42,36.11M1157.83,711.83h-14.25v24.71h14.25c8.23,0,13.94-5.07,13.94-12.35s-5.7-12.35-13.94-12.35"/>
  <path class="cls-7" d="M1277.34,686.5c33.1,0,56.06,22.49,56.06,54.64s-23.91,54.64-56.06,54.64-55.9-22.33-55.9-54.64,22.96-54.64,55.9-54.64M1277.34,770.12c16.47,0,28.82-12.51,28.82-28.98s-11.72-28.98-28.82-28.98-28.66,11.88-28.66,28.98,11.72,28.98,28.66,28.98"/>
  <path class="cls-7" d="M591.37,826.22c2.72,3.19,5.59,6.33,8.63,9.39,30.33,30.56,71.61,48.42,123.27,54.05v-23.07c-45.07-5.35-80.86-20.84-106.88-46.99-4.38-4.41-8.37-9.01-12.02-13.75,29.84,24.2,69.6,38.95,118.9,43.78v-23.81c-52.85-5.55-92.95-22.56-119.71-52.18-22.09-24.45-31.85-59.1-35.76-85.07-.08-.58-.04-.5-.15-.51h-27.02c-.02,1.26,0,4.65,0,4.65,0,0,.04,9.15,0,15.76-.23,37.15,6.46,113.58,59.54,167.51,30.71,31.2,71.94,50.26,123.08,55.96v-23.63c-44.56-5.43-80.28-21.57-106.65-48.3-10.25-10.39-18.54-21.86-25.25-33.8"/>
  <rect class="cls-4" width="1920" height="1080"/>
</svg>