<?xml version="1.0" encoding="UTF-8"?>
<svg xmlns="http://www.w3.org/2000/svg" viewBox="535 140 855 260" fill="#fffef7">
  <!-- Isotipo -->
  <path d="M591.37,286.22c2.72,3.19,5.59,6.33,8.63,9.39,30.33,30.56,71.61,48.42,123.27,54.05v-23.07c-45.07-5.35-80.86-20.84-106.88-46.99-4.38-4.41-8.37-9.01-12.02-13.75,29.84,24.2,69.6,38.95,118.9,43.78v-23.81c-52.85-5.55-92.95-22.56-119.71-52.18-22.09-24.45-31.85-59.1-35.76-85.07-.08-.58-.04-.5-.15-.51h-27.02c-.02,1.26,0,4.65,0,4.65,0,0,.04,9.15,0,15.76-.23,37.15,6.46,113.58,59.54,167.51,30.71,31.2,71.94,50.26,123.08,55.96v-23.63c-44.56-5.43-80.28-21.57-106.65-48.3-10.25-10.39-18.54-21.86-25.25-33.8"/>
  <!-- G -->
  <path d="M826.82,183.87c-5.39-7.6-13.46-11.72-22.81-11.72-16.95,0-28.51,11.88-28.51,28.98s12.83,30.25,31.36,30.25c5.7,0,11.4-1.27,16.79-3.8v-12.83h-21.22v-20.74h48.14v47.83c-11.4,8.87-28.35,13.94-46.56,13.94-32.94,0-55.9-22.17-55.9-54.64s22.96-54.64,55.9-54.64c19.01,0,35.16,7.44,44.66,20.59l-21.85,16.79Z"/>
  <!-- R -->
  <path d="M947.35,217.13l22.01,37.06h-30.09l-18.37-33.89h-11.72v33.89h-26.92v-106.11h49.09c21.38,0,36.42,15.05,36.42,36.11,0,15.36-7.92,27.4-20.43,32.94M926.6,171.83h-17.42v26.29h17.42c8.24,0,13.94-5.38,13.94-13.14s-5.7-13.15-13.94-13.15"/>
  <!-- U -->
  <path d="M1083.39,214.12c0,23.91-18.21,41.65-42.76,41.65s-42.76-16.95-42.76-41.65v-66.04h26.92v66.04c0,9.5,6.49,16,15.84,16s15.84-6.81,15.84-16v-66.04h26.92v66.04Z"/>
  <!-- P -->
  <path d="M1162.58,220.3h-19.01v33.89h-26.92v-106.11h45.93c21.38,0,36.42,15.05,36.42,36.11s-15.04,36.11-36.42,36.11M1157.83,171.83h-14.25v24.71h14.25c8.23,0,13.94-5.07,13.94-12.35s-5.7-12.35-13.94-12.35"/>
  <!-- O -->
  <path d="M1277.34,146.5c33.1,0,56.06,22.49,56.06,54.64s-23.91,54.64-56.06,54.64-55.9-22.33-55.9-54.64,22.96-54.64,55.9-54.64M1277.34,230.12c16.47,0,28.82-12.51,28.82-28.98s-11.72-28.98-28.82-28.98-28.66,11.88-28.66,28.98,11.72,28.98,28.66,28.98"/>
  <!-- E -->
  <polygon points="829.14 309.57 781.63 309.57 781.63 326.51 823.59 326.51 823.59 349.64 781.63 349.64 781.63 368.16 829.14 368.16 829.14 391.92 754.7 391.92 754.7 285.81 829.14 285.81 829.14 309.57"/>
  <!-- S -->
  <path d="M897.72,393.5c-16.63,0-33.73-6.97-44.82-18.37l16.47-19.32c10.14,9.66,18.69,13.94,27.71,13.94,7.76,0,13.15-3.33,13.15-8.23,0-16.15-53.37-8.71-53.37-44.18,0-19,16.95-33.1,39.75-33.1,14.41,0,27.71,5.23,37.85,14.89l-16.63,19.48c-7.44-7.13-15.04-10.61-22.65-10.61-6.81,0-11.24,2.53-11.24,6.49,0,14.89,53.69,8.08,53.69,45.61,0,19.8-16.31,33.42-39.91,33.42"/>
  <!-- T -->
  <polygon points="1046.11 309.57 1016.02 309.57 1016.02 391.92 989.1 391.92 989.1 309.57 959.01 309.57 959.01 285.81 1046.11 285.81 1046.11 309.57"/>
  <!-- E -->
  <polygon points="1148.27 309.57 1100.76 309.57 1100.76 326.51 1142.72 326.51 1142.72 349.64 1100.76 349.64 1100.76 368.16 1148.27 368.16 1148.27 391.92 1073.83 391.92 1073.83 285.81 1148.27 285.81 1148.27 309.57"/>
  <!-- P -->
  <path d="M1223.5,358.03h-19v33.89h-26.92v-106.11h45.93c21.38,0,36.42,15.04,36.42,36.11s-15.04,36.11-36.42,36.11M1218.74,309.57h-14.25v24.71h14.25c8.23,0,13.94-5.07,13.94-12.35s-5.7-12.35-13.94-12.35"/>
  <!-- A -->
  <polygon points="1339.61 285.79 1309.2 285.79 1269.46 391.89 1297.95 391.89 1304.13 374.48 1312.05 352.3 1324.4 317.45 1336.77 352.3 1336.78 352.3 1350.85 391.89 1379.36 391.89 1339.61 285.79"/>
</svg>
